<svg class="lava__art" xmlns="http://www.w3.org/2000/svg" viewBox="0 0 240 480" preserveAspectRatio="xMidYMax meet" aria-hidden="true" focusable="false">
  <defs>
    <clipPath id="lava-clip">
      <path d="M86 66H154C164 130 190 220 194 268C196 296 188 320 178 334H62C52 320 44 296 46 268C50 220 76 130 86 66Z"/>
    </clipPath>
    <!-- metal cepillado: oscuro con un brillo a un cuarto del ancho -->
    <linearGradient id="lava-metal" x1="0" y1="0" x2="1" y2="0">
      <stop offset="0" stop-color="#0b0e15"/>
      <stop offset=".13" stop-color="#161c28"/>
      <stop offset=".24" stop-color="#2d3648"/>
      <stop offset=".31" stop-color="#131822"/>
      <stop offset=".56" stop-color="var(--tile-black, #05070b)"/>
      <stop offset=".88" stop-color="var(--tile-black, #05070b)"/>
      <stop offset="1" stop-color="#10141d"/>
    </linearGradient>
    <!-- luz calida del cristal que cae sobre la base y el tapon -->
    <linearGradient id="lava-spill-down" x1="0" y1="0" x2="0" y2="1">
      <stop offset="0" stop-color="#ffa468" stop-opacity=".18"/>
      <stop offset=".4" stop-color="#ffa468" stop-opacity="0"/>
    </linearGradient>
    <linearGradient id="lava-spill-up" x1="0" y1="1" x2="0" y2="0">
      <stop offset="0" stop-color="#ffa468" stop-opacity=".2"/>
      <stop offset=".6" stop-color="#ffa468" stop-opacity="0"/>
    </linearGradient>
    <linearGradient id="lava-shine" x1="0" y1="0" x2="0" y2="1">
      <stop offset="0" stop-color="#fff" stop-opacity=".22"/>
      <stop offset="1" stop-color="#fff" stop-opacity="0"/>
    </linearGradient>
    <!-- liquido marino translucido -->
    <linearGradient id="lava-liquid" x1="0" y1="0" x2="0" y2="1">
      <stop offset="0" stop-color="#101c36" stop-opacity=".94"/>
      <stop offset=".6" stop-color="#15294d" stop-opacity=".92"/>
      <stop offset="1" stop-color="#1d3a6b" stop-opacity=".92"/>
    </linearGradient>
    <radialGradient id="lava-heat" cx="120" cy="336" r="120" gradientUnits="userSpaceOnUse">
      <stop offset="0" stop-color="#ffc58a" stop-opacity=".5"/>
      <stop offset=".35" stop-color="#ff9a66" stop-opacity=".2"/>
      <stop offset="1" stop-color="#ff9a66" stop-opacity="0"/>
    </radialGradient>
    <!-- volumen del cilindro: bordes en sombra -->
    <linearGradient id="lava-volume" x1="0" y1="0" x2="1" y2="0">
      <stop offset="0" stop-color="#03060c" stop-opacity=".6"/>
      <stop offset=".2" stop-color="#03060c" stop-opacity="0"/>
      <stop offset=".78" stop-color="#03060c" stop-opacity="0"/>
      <stop offset="1" stop-color="#03060c" stop-opacity=".55"/>
    </linearGradient>
    <!-- cera: nucleo ambar que brilla con la bombilla y borde coral mas frio -->
    <radialGradient id="lava-wax" cx=".5" cy=".6" r=".58">
      <stop offset="0" stop-color="#ffbd66"/>
      <stop offset=".5" stop-color="#ff9155"/>
      <stop offset="1" stop-color="#df5443"/>
    </radialGradient>
    <linearGradient id="lava-pool" x1="0" y1="0" x2="0" y2="1">
      <stop offset="0" stop-color="#f98450"/>
      <stop offset=".3" stop-color="#ffa159"/>
      <stop offset="1" stop-color="#ffbe6a"/>
    </linearGradient>
    <filter id="lava-goo" x="30" y="50" width="180" height="300" filterUnits="userSpaceOnUse" color-interpolation-filters="sRGB">
      <feGaussianBlur in="SourceGraphic" stdDeviation="6"/>
      <feColorMatrix values="1 0 0 0 0  0 1 0 0 0  0 0 1 0 0  0 0 0 20 -8"/>
    </filter>
  </defs>

  <!-- sombra de contacto -->
  <ellipse cx="120" cy="472" rx="108" ry="6" fill="#000" opacity=".35"/>

  <!-- base conica -->
  <g class="lava__base">
    <path d="M62 344H178L220 462H20Z" fill="url(#lava-metal)"/>
    <path d="M62 344H178L220 462H20Z" fill="url(#lava-spill-down)"/>
    <g fill="none" stroke="#fff" stroke-opacity=".035" stroke-width=".8">
      <path d="M79 346L45 460M96 346L70 460M131 346L125 460M148 346L150 460M165 346L175 460"/>
    </g>
    <path d="M89 348L60 456" fill="none" stroke="url(#lava-shine)" stroke-width="2.2" stroke-linecap="round"/>
    <path d="M62 344H178L220 462H20Z" fill="none" stroke="var(--hairline-strong, rgba(255,255,255,.16))" stroke-width="1.5" stroke-linejoin="round"/>
    <rect x="14" y="460" width="212" height="12" rx="6" fill="url(#lava-metal)" stroke="var(--hairline-strong, rgba(255,255,255,.16))" stroke-width="1.5"/>
    <path d="M22 462.5H218" fill="none" stroke="#fff" stroke-opacity=".08" stroke-width="1" stroke-linecap="round"/>
  </g>

  <!-- cristal: liquido, luz interna, cera y reflejos -->
  <g clip-path="url(#lava-clip)">
    <rect x="30" y="50" width="180" height="300" fill="#9fbde6" fill-opacity=".05"/>
    <rect x="30" y="80" width="180" height="270" fill="url(#lava-liquid)"/>
    <rect x="30" y="50" width="180" height="300" fill="url(#lava-heat)"/>
    <g class="lava__wax" filter="url(#lava-goo)" fill="url(#lava-wax)">
      <path class="lava__pool" d="M36 318C58 313 78 308 94 302C110 296 128 295 144 300C162 306 184 312 206 316V350H36Z" fill="url(#lava-pool)"/>
      <circle class="lava__blob lava__blob--1" cx="110" cy="294" r="24"/>
      <circle class="lava__blob lava__blob--2" cx="134" cy="206" r="17"/>
      <circle class="lava__blob lava__blob--3" cx="128" cy="108" r="14"/>
      <circle class="lava__blob lava__blob--4" cx="106" cy="178" r="21"/>
      <circle class="lava__blob lava__blob--5" cx="106" cy="258" r="12"/>
      <circle class="lava__blob lava__blob--6" cx="156" cy="302" r="16"/>
    </g>
    <rect x="30" y="50" width="180" height="300" fill="url(#lava-volume)"/>
    <path d="M30 80.5Q120 84 210 80.5" fill="none" stroke="#bcd3f5" stroke-opacity=".22" stroke-width="1"/>
    <path d="M89 96C84 146 68 212 62 258" fill="none" stroke="#fff" stroke-opacity=".11" stroke-width="4" stroke-linecap="round"/>
    <path d="M94 76L92 86" fill="none" stroke="#fff" stroke-opacity=".16" stroke-width="2.5" stroke-linecap="round"/>
    <path d="M174 208C180 236 183 262 181 290" fill="none" stroke="#fff" stroke-opacity=".06" stroke-width="2" stroke-linecap="round"/>
  </g>
  <path d="M86 66H154C164 130 190 220 194 268C196 296 188 320 178 334H62C52 320 44 296 46 268C50 220 76 130 86 66Z" fill="none" stroke="var(--hairline-strong, rgba(255,255,255,.16))" stroke-width="1.5" stroke-linejoin="round"/>

  <!-- collar entre cristal y base -->
  <rect x="56" y="330" width="128" height="15" rx="4" fill="url(#lava-metal)" stroke="var(--hairline-strong, rgba(255,255,255,.16))" stroke-width="1.5"/>
  <path d="M60 331.5H180" fill="none" stroke="#ffb27a" stroke-opacity=".35" stroke-width="1" stroke-linecap="round"/>

  <!-- tapon -->
  <g class="lava__cap">
    <path d="M100 22Q120 14 140 22L156 64H84Z" fill="url(#lava-metal)"/>
    <path d="M100 22Q120 14 140 22L156 64H84Z" fill="url(#lava-spill-up)"/>
    <path d="M106 25L93 60" fill="none" stroke="url(#lava-shine)" stroke-width="1.8" stroke-linecap="round"/>
    <path d="M100 22Q120 14 140 22L156 64H84Z" fill="none" stroke="var(--hairline-strong, rgba(255,255,255,.16))" stroke-width="1.5" stroke-linejoin="round"/>
    <rect x="81" y="61" width="78" height="8" rx="3" fill="url(#lava-metal)" stroke="var(--hairline-strong, rgba(255,255,255,.16))" stroke-width="1.5"/>
  </g>
</svg>
